<svg width="3130" height="670" viewBox="0 0 3130 670" fill="none" xmlns="http://www.w3.org/2000/svg">
<path d="M589.778 447.646C571.29 516.643 528.79 576.779 469.922 617.238C411.054 657.697 339.681 675.823 268.641 668.357C197.602 660.89 131.558 628.321 82.3877 576.506C33.2179 524.692 4.14955 457.034 0.411141 385.701C-3.32727 314.368 18.5096 244.042 61.994 187.372C105.478 130.702 167.756 91.4071 237.626 76.5557C307.496 61.7044 380.373 72.271 443.148 106.355C505.922 140.439 554.476 195.803 580.074 262.49L510.056 289.367C490.857 239.352 454.442 197.829 407.361 172.266C360.28 146.703 305.622 138.778 253.22 149.917C200.817 161.055 154.109 190.526 121.495 233.029C88.8822 275.531 72.5045 328.276 75.3084 381.776C78.1122 435.275 99.9134 486.019 136.791 524.88C173.668 563.74 223.201 588.167 276.481 593.767C329.761 599.367 383.29 585.773 427.441 555.428C471.592 525.084 503.468 479.982 517.333 428.234L589.778 447.646Z" fill="url(#paint0_linear_1_91)"/>
<path d="M154.657 514.429C125.987 485.759 106.448 449.247 98.5086 409.51C90.5696 369.773 94.5881 328.595 110.056 291.185C125.523 253.774 151.746 221.811 185.407 199.336C219.067 176.862 258.655 164.886 299.163 164.923C339.672 164.96 379.281 177.008 412.983 199.544C446.685 222.08 472.965 254.091 488.501 291.53C504.037 328.969 508.131 370.153 500.264 409.876C492.398 449.599 472.924 486.075 444.307 514.693L409.262 479.648C430.961 457.949 445.727 430.291 451.692 400.172C457.656 370.053 454.552 338.825 442.772 310.437C430.992 282.049 411.065 257.777 385.511 240.689C359.957 223.602 329.923 214.466 299.208 214.438C268.493 214.41 238.476 223.491 212.953 240.532C187.43 257.573 167.548 281.809 155.819 310.175C144.091 338.542 141.044 369.764 147.064 399.894C153.083 430.025 167.899 457.709 189.638 479.448L154.657 514.429Z" fill="url(#paint1_linear_1_91)"/>
<path d="M799.15 469.5C773.483 469.5 751.083 464.483 731.95 454.45C713.05 444.183 698.467 429.6 688.2 410.7C678.167 391.8 673.15 369.517 673.15 343.85C673.15 318.183 678.167 295.9 688.2 277C698.467 257.867 713.05 243.167 731.95 232.9C750.85 222.633 773.133 217.5 798.8 217.5C819.8 217.5 839.283 221.117 857.25 228.35C875.217 235.583 888.75 245.383 897.85 257.75C900.417 261.483 901.7 264.867 901.7 267.9C901.7 273.033 899.017 277.583 893.65 281.55C890.617 283.417 887.467 284.35 884.2 284.35C881.167 284.35 878.133 283.65 875.1 282.25C872.3 280.85 869.85 278.983 867.75 276.65C860.05 267.317 850.483 260.433 839.05 256C827.85 251.567 814.433 249.35 798.8 249.35C771.967 249.35 750.967 257.75 735.8 274.55C720.867 291.117 713.4 314.217 713.4 343.85C713.4 373.017 720.983 396 736.15 412.8C751.317 429.367 772.317 437.65 799.15 437.65C830.883 437.65 855.267 428.55 872.3 410.35C877.9 404.75 883.617 401.95 889.45 401.95C893.183 401.95 896.567 403.117 899.6 405.45C904.267 409.417 906.6 413.733 906.6 418.4C906.6 422.367 905.2 426.1 902.4 429.6C892.367 441.967 878.25 451.767 860.05 459C841.85 466 821.55 469.5 799.15 469.5ZM1026.19 553.5C1009.15 553.5 993.635 550.817 979.635 545.45C965.868 540.317 955.485 533.2 948.485 524.1C945.918 520.367 944.635 516.867 944.635 513.6C944.635 508.467 947.085 503.917 951.985 499.95C955.018 497.85 958.285 496.8 961.785 496.8C967.618 496.8 972.868 499.483 977.535 504.85C982.668 510.45 989.318 514.767 997.485 517.8C1005.89 520.833 1015.1 522.35 1025.14 522.35C1043.1 522.35 1056.99 517.333 1066.79 507.3C1076.59 497.267 1081.49 483.033 1081.49 464.6V446.75C1075.42 453.517 1067.6 458.883 1058.04 462.85C1048.47 466.817 1038.67 468.8 1028.64 468.8C999.702 468.8 977.068 460.983 960.735 445.35C944.635 429.483 936.585 407.433 936.585 379.2V308.5C936.585 303.6 938.452 299.517 942.185 296.25C945.918 292.75 950.702 291 956.535 291C961.902 291 966.452 292.75 970.185 296.25C973.918 299.517 975.785 303.6 975.785 308.5V379.2C975.785 397.867 980.452 412.45 989.785 422.95C999.118 433.217 1012.07 438.35 1028.64 438.35C1044.74 438.35 1057.22 433.333 1066.09 423.3C1075.19 413.033 1079.74 398.683 1079.74 380.25V312C1079.74 305.467 1081.49 300.333 1084.99 296.6C1088.49 292.867 1093.39 291 1099.69 291C1105.99 291 1110.89 292.867 1114.39 296.6C1117.89 300.333 1119.64 305.467 1119.64 312V460.05C1119.64 488.983 1111.24 511.733 1094.44 528.3C1077.87 545.1 1055.12 553.5 1026.19 553.5ZM1176.08 469.5C1170.02 469.5 1165.23 467.867 1161.73 464.6C1158.47 461.333 1156.83 456.783 1156.83 450.95V218.9C1156.83 213.067 1158.47 208.517 1161.73 205.25C1165.23 201.983 1170.02 200.35 1176.08 200.35C1182.15 200.35 1186.93 201.983 1190.43 205.25C1193.93 208.517 1195.68 213.067 1195.68 218.9L1196.03 321.1C1204.9 311.3 1215.17 303.833 1226.83 298.7C1238.5 293.567 1251.22 291 1264.98 291C1293.92 291 1316.55 298.933 1332.88 314.8C1349.45 330.667 1357.73 352.483 1357.73 380.25C1357.73 408.483 1349.57 430.417 1333.23 446.05C1316.9 461.683 1293.92 469.5 1264.28 469.5C1250.05 469.5 1237.45 467.05 1226.48 462.15C1215.52 457.25 1205.25 449.433 1195.68 438.7V450.95C1195.68 456.55 1193.93 461.1 1190.43 464.6C1186.93 467.867 1182.15 469.5 1176.08 469.5ZM1259.03 438C1277.93 438 1292.52 432.983 1302.78 422.95C1313.05 412.917 1318.18 398.683 1318.18 380.25C1318.18 362.283 1312.93 348.167 1302.43 337.9C1291.93 327.633 1277.47 322.5 1259.03 322.5C1239.67 322.5 1224.27 327.75 1212.83 338.25C1201.4 348.517 1195.68 362.517 1195.68 380.25C1195.68 398.217 1201.28 412.333 1212.48 422.6C1223.68 432.867 1239.2 438 1259.03 438ZM1415.49 264.05C1408.02 264.05 1401.84 261.95 1396.94 257.75C1392.27 253.317 1389.94 247.717 1389.94 240.95C1389.94 234.183 1392.27 228.7 1396.94 224.5C1401.84 220.067 1408.02 217.85 1415.49 217.85C1422.96 217.85 1429.14 220.067 1434.04 224.5C1438.94 228.7 1441.39 234.183 1441.39 240.95C1441.39 247.717 1438.94 253.317 1434.04 257.75C1429.14 261.95 1422.96 264.05 1415.49 264.05ZM1415.49 469.5C1409.42 469.5 1404.64 467.867 1401.14 464.6C1397.87 461.333 1396.24 456.783 1396.24 450.95V309.55C1396.24 303.717 1397.87 299.167 1401.14 295.9C1404.64 292.633 1409.42 291 1415.49 291C1421.56 291 1426.34 292.633 1429.84 295.9C1433.57 299.167 1435.44 303.717 1435.44 309.55V450.95C1435.44 456.783 1433.57 461.333 1429.84 464.6C1426.34 467.867 1421.56 469.5 1415.49 469.5ZM1505.75 469.5C1499.68 469.5 1494.9 467.867 1491.4 464.6C1487.9 461.333 1486.15 456.783 1486.15 450.95V218.9C1486.15 213.067 1487.9 208.517 1491.4 205.25C1494.9 201.983 1499.68 200.35 1505.75 200.35C1511.81 200.35 1516.6 201.983 1520.1 205.25C1523.6 208.517 1525.35 213.067 1525.35 218.9V450.95C1525.35 456.55 1523.48 461.1 1519.75 464.6C1516.25 467.867 1511.58 469.5 1505.75 469.5ZM1596.67 469.5C1590.6 469.5 1585.82 467.867 1582.32 464.6C1578.82 461.333 1577.07 456.783 1577.07 450.95V218.9C1577.07 213.067 1578.82 208.517 1582.32 205.25C1585.82 201.983 1590.6 200.35 1596.67 200.35C1602.73 200.35 1607.52 201.983 1611.02 205.25C1614.52 208.517 1616.27 213.067 1616.27 218.9V450.95C1616.27 456.55 1614.4 461.1 1610.67 464.6C1607.17 467.867 1602.5 469.5 1596.67 469.5ZM1775.99 469.5C1769.92 469.5 1765.14 467.867 1761.64 464.6C1758.14 461.333 1756.39 456.783 1756.39 450.95V315.15C1756.39 284.583 1765.84 260.667 1784.74 243.4C1803.87 226.133 1830.12 217.5 1863.49 217.5C1885.42 217.5 1904.44 221.467 1920.54 229.4C1936.64 237.1 1948.89 248.3 1957.29 263C1965.92 277.7 1970.24 295.083 1970.24 315.15V450.95C1970.24 456.783 1968.49 461.333 1964.99 464.6C1961.49 467.867 1956.7 469.5 1950.64 469.5C1944.57 469.5 1939.67 467.867 1935.94 464.6C1932.44 461.1 1930.69 456.55 1930.69 450.95V314.1C1930.69 293.333 1924.85 277.35 1913.19 266.15C1901.52 254.95 1884.95 249.35 1863.49 249.35C1842.02 249.35 1825.34 255.067 1813.44 266.5C1801.77 277.7 1795.94 293.567 1795.94 314.1V450.95C1795.94 456.55 1794.07 461.1 1790.34 464.6C1786.84 467.867 1782.05 469.5 1775.99 469.5ZM2102.02 469.5C2081.95 469.5 2064.45 466 2049.52 459C2034.82 451.767 2023.5 441.5 2015.57 428.2C2007.87 414.9 2004.02 399.15 2004.02 380.95C2004.02 352.717 2012.42 330.667 2029.22 314.8C2046.02 298.933 2069.35 291 2099.22 291C2117.65 291 2133.98 293.917 2148.22 299.75C2162.45 305.583 2173.53 313.75 2181.47 324.25C2189.4 334.517 2193.37 346.3 2193.37 359.6C2193.37 370.333 2190.1 378.617 2183.57 384.45C2177.03 390.283 2167.82 393.2 2155.92 393.2H2042.52C2042.52 407.667 2047.65 418.867 2057.92 426.8C2068.18 434.733 2082.88 438.7 2102.02 438.7C2112.98 438.7 2122.67 437.533 2131.07 435.2C2139.47 432.867 2147.28 429.133 2154.52 424C2161.28 419.567 2166.42 417.35 2169.92 417.35C2172.95 417.35 2176.1 418.983 2179.37 422.25C2183.1 425.75 2184.97 429.6 2184.97 433.8C2184.97 438.233 2182.98 441.967 2179.02 445C2159.42 461.333 2133.75 469.5 2102.02 469.5ZM2144.02 364.85C2147.98 364.85 2150.9 364.033 2152.77 362.4C2154.63 360.767 2155.57 357.967 2155.57 354C2155.57 344.433 2150.43 336.733 2140.17 330.9C2129.9 324.833 2116.25 321.8 2099.22 321.8C2081.95 321.8 2068.3 325.767 2058.27 333.7C2048.23 341.4 2043.22 351.783 2043.22 364.85H2144.02ZM2245.57 469.5C2239.51 469.5 2234.72 467.867 2231.22 464.6C2227.72 461.333 2225.97 456.783 2225.97 450.95V309.55C2225.97 303.717 2227.61 299.167 2230.87 295.9C2234.37 292.633 2239.04 291 2244.87 291C2250.94 291 2255.61 292.633 2258.87 295.9C2262.37 299.167 2264.12 303.717 2264.12 309.55V324.25C2279.29 304.417 2299.24 294.5 2323.97 294.5H2332.02C2338.32 294.5 2343.22 295.9 2346.72 298.7C2350.46 301.5 2352.32 305.35 2352.32 310.25C2352.32 315.383 2350.46 319.35 2346.72 322.15C2343.22 324.717 2338.32 326 2332.02 326H2320.82C2303.79 326 2290.26 331.25 2280.22 341.75C2270.19 352.017 2265.17 366.133 2265.17 384.1V450.95C2265.17 456.55 2263.31 461.1 2259.57 464.6C2256.07 467.867 2251.41 469.5 2245.57 469.5ZM2445.42 469.5C2426.98 469.5 2410.65 466 2396.42 459C2382.42 451.767 2371.45 441.5 2363.52 428.2C2355.82 414.667 2351.97 398.8 2351.97 380.6C2351.97 362.633 2355.7 346.883 2363.17 333.35C2370.87 319.817 2381.83 309.433 2396.07 302.2C2410.3 294.733 2427.1 291 2446.47 291C2461.63 291 2474.47 293.567 2484.97 298.7C2495.47 303.833 2505.03 311.3 2513.67 321.1L2514.02 218.9C2514.02 213.067 2515.77 208.517 2519.27 205.25C2522.77 201.983 2527.55 200.35 2533.62 200.35C2539.68 200.35 2544.47 201.983 2547.97 205.25C2551.47 208.517 2553.22 213.067 2553.22 218.9V450.95C2553.22 456.783 2551.47 461.333 2547.97 464.6C2544.47 467.867 2539.68 469.5 2533.62 469.5C2527.78 469.5 2523 467.867 2519.27 464.6C2515.77 461.1 2514.02 456.55 2514.02 450.95V438.7C2497.92 459.233 2475.05 469.5 2445.42 469.5ZM2451.02 438C2470.62 438 2486.02 432.867 2497.22 422.6C2508.42 412.333 2514.02 398.217 2514.02 380.25C2514.02 362.283 2508.18 348.167 2496.52 337.9C2485.08 327.633 2469.92 322.5 2451.02 322.5C2432.35 322.5 2417.77 327.75 2407.27 338.25C2396.77 348.517 2391.52 362.633 2391.52 380.6C2391.52 399.033 2396.77 413.267 2407.27 423.3C2417.77 433.1 2432.35 438 2451.02 438Z" fill="url(#paint2_linear_1_91)"/>
<defs>
<linearGradient id="paint0_linear_1_91" x1="21.3451" y1="670" x2="578.655" y2="70" gradientUnits="userSpaceOnUse">
<stop stop-color="#3255B5"/>
<stop offset="1" stop-color="#04C9EC"/>
</linearGradient>
<linearGradient id="paint1_linear_1_91" x1="455.423" y1="236.424" x2="143.764" y2="503.617" gradientUnits="userSpaceOnUse">
<stop stop-color="#04C9EC"/>
<stop offset="1" stop-color="#3255B5"/>
</linearGradient>
<linearGradient id="paint2_linear_1_91" x1="656" y1="335" x2="3130" y2="335" gradientUnits="userSpaceOnUse">
<stop stop-color="#04C9EC"/>
<stop offset="1" stop-color="#3255B5"/>
</linearGradient>
</defs>
</svg>
