<svg width="600" height="600" viewBox="0 0 600 600" fill="none" xmlns="http://www.w3.org/2000/svg">
<path d="M589.778 377.646C571.29 446.643 528.79 506.779 469.922 547.238C411.054 587.697 339.681 605.823 268.641 598.357C197.602 590.89 131.558 558.321 82.3877 506.506C33.2179 454.692 4.14955 387.034 0.411141 315.701C-3.32727 244.368 18.5096 174.042 61.994 117.372C105.478 60.7016 167.756 21.4071 237.626 6.55573C307.496 -8.29561 380.373 2.27096 443.148 36.3549C505.922 70.4387 554.476 125.803 580.074 192.49L510.056 219.367C490.857 169.352 454.442 127.829 407.361 102.266C360.28 76.7032 305.622 68.7783 253.22 79.9168C200.817 91.0553 154.109 120.526 121.495 163.029C88.8822 205.531 72.5045 258.276 75.3084 311.776C78.1122 365.275 99.9134 416.019 136.791 454.88C173.668 493.74 223.201 518.167 276.481 523.767C329.761 529.367 383.29 515.773 427.441 485.428C471.592 455.084 503.468 409.982 517.333 358.234L589.778 377.646Z" fill="url(#paint0_linear_1_92)"/>
<path d="M154.657 444.429C125.987 415.759 106.448 379.247 98.5086 339.51C90.5696 299.773 94.5881 258.595 110.056 221.185C125.523 183.774 151.746 151.811 185.407 129.336C219.067 106.862 258.655 94.8857 299.163 94.9227C339.672 94.9596 379.281 107.008 412.983 129.544C446.685 152.08 472.965 184.091 488.501 221.53C504.037 258.969 508.131 300.153 500.264 339.876C492.398 379.599 472.924 416.075 444.307 444.693L409.262 409.648C430.961 387.949 445.727 360.291 451.692 330.172C457.656 300.053 454.552 268.825 442.772 240.437C430.992 212.049 411.065 187.777 385.511 170.689C359.957 153.602 329.923 144.466 299.208 144.438C268.493 144.41 238.476 153.491 212.953 170.532C187.43 187.573 167.548 211.809 155.819 240.175C144.091 268.542 141.044 299.764 147.064 329.894C153.083 360.025 167.899 387.709 189.638 409.448L154.657 444.429Z" fill="url(#paint1_linear_1_92)"/>
<defs>
<linearGradient id="paint0_linear_1_92" x1="21.3451" y1="600" x2="578.655" y2="-1.0847e-05" gradientUnits="userSpaceOnUse">
<stop stop-color="#3255B5"/>
<stop offset="1" stop-color="#04C9EC"/>
</linearGradient>
<linearGradient id="paint1_linear_1_92" x1="455.423" y1="166.424" x2="143.764" y2="433.617" gradientUnits="userSpaceOnUse">
<stop stop-color="#04C9EC"/>
<stop offset="1" stop-color="#3255B5"/>
</linearGradient>
</defs>
</svg>
